<svg width="14" height="14" viewBox="0 0 14 14" fill="none" xmlns="http://www.w3.org/2000/svg">
<path d="M4.22957 12.6666C4.56028 12.6666 4.82837 12.3973 4.82837 12.0651C4.82837 11.7329 4.56028 11.4636 4.22957 11.4636C3.89886 11.4636 3.63077 11.7329 3.63077 12.0651C3.63077 12.3973 3.89886 12.6666 4.22957 12.6666Z" stroke="#008848" stroke-width="1.33333" stroke-linecap="round" stroke-linejoin="round"/>
<path d="M10.8163 12.6666C11.147 12.6666 11.4151 12.3973 11.4151 12.0651C11.4151 11.7329 11.147 11.4636 10.8163 11.4636C10.4856 11.4636 10.2175 11.7329 10.2175 12.0651C10.2175 12.3973 10.4856 12.6666 10.8163 12.6666Z" stroke="#008848" stroke-width="1.33333" stroke-linecap="round" stroke-linejoin="round"/>
<path d="M0.666656 0.666748H1.86426L3.45708 8.13743C3.51551 8.41103 3.66706 8.65561 3.88565 8.82907C4.10423 9.00254 4.37618 9.09403 4.65468 9.0878H10.511C10.7835 9.08736 11.0478 8.99354 11.2601 8.82184C11.4724 8.65014 11.62 8.41083 11.6786 8.14344L12.6667 3.67427H2.50498" stroke="#008848" stroke-width="1.33333" stroke-linecap="round" stroke-linejoin="round"/>
</svg>
