<svg width="12" height="15" viewBox="0 0 12 15" fill="none" xmlns="http://www.w3.org/2000/svg">
<path d="M5.2005 13.338C5.38294 13.4434 5.5899 13.4988 5.80056 13.4988C6.01123 13.4988 6.21818 13.4434 6.40062 13.338L10.6011 10.9378C10.7833 10.8325 10.9347 10.6812 11.04 10.499C11.1454 10.3168 11.2009 10.1101 11.2011 9.89967V5.09915C11.2009 4.8887 11.1454 4.682 11.04 4.49979C10.9347 4.31758 10.7833 4.16627 10.6011 4.06104L6.40062 1.66079C6.21818 1.55545 6.01123 1.5 5.80056 1.5C5.5899 1.5 5.38294 1.55545 5.2005 1.66079L1.00006 4.06104C0.817802 4.16627 0.666417 4.31758 0.561095 4.49979C0.455773 4.682 0.400217 4.8887 0.400002 5.09915V9.89967C0.400217 10.1101 0.455773 10.3168 0.561095 10.499C0.666417 10.6812 0.817802 10.8325 1.00006 10.9378L5.2005 13.338Z" stroke="#2563EB" stroke-width="0.8" stroke-linecap="round" stroke-linejoin="round"/>
<path d="M5.80059 13.5002V7.49951" stroke="#2563EB" stroke-width="0.8" stroke-linecap="round" stroke-linejoin="round"/>
<path d="M0.574028 4.49902L5.80057 7.49934L11.0271 4.49902" stroke="#2563EB" stroke-width="0.8" stroke-linecap="round" stroke-linejoin="round"/>
<path d="M3.1003 2.86084L8.50086 5.95117" stroke="#2563EB" stroke-width="0.8" stroke-linecap="round" stroke-linejoin="round"/>
</svg>
