<svg width="14" height="14" viewBox="0 0 14 14" fill="none" xmlns="http://www.w3.org/2000/svg">
<path d="M4.8473 12.299C5.13943 12.299 5.37624 12.0612 5.37624 11.7678C5.37624 11.4744 5.13943 11.2366 4.8473 11.2366C4.55517 11.2366 4.31836 11.4744 4.31836 11.7678C4.31836 12.0612 4.55517 12.299 4.8473 12.299Z" stroke="#90A1B9" stroke-width="1.16667" stroke-linecap="round" stroke-linejoin="round"/>
<path d="M10.6657 12.299C10.9578 12.299 11.1946 12.0612 11.1946 11.7678C11.1946 11.4744 10.9578 11.2366 10.6657 11.2366C10.3735 11.2366 10.1367 11.4744 10.1367 11.7678C10.1367 12.0612 10.3735 12.299 10.6657 12.299Z" stroke="#90A1B9" stroke-width="1.16667" stroke-linecap="round" stroke-linejoin="round"/>
<path d="M1.7002 1.70117H2.75808L4.16507 8.29885C4.21668 8.54047 4.35055 8.75647 4.54364 8.90967C4.73672 9.06286 4.97694 9.14366 5.22295 9.13816H10.396C10.6368 9.13777 10.8702 9.05492 11.0577 8.90328C11.2453 8.75164 11.3757 8.5403 11.4274 8.30416L12.3002 4.35724H3.32405" stroke="#90A1B9" stroke-width="1.16667" stroke-linecap="round" stroke-linejoin="round"/>
</svg>
