<svg width="20" height="20" viewBox="0 0 20 20" fill="none" xmlns="http://www.w3.org/2000/svg">
<path d="M14.9628 10.2748C14.8112 11.3536 14.3431 12.3632 13.6176 13.176C12.8922 13.9888 11.9421 14.5682 10.8873 14.8409C9.83263 15.1137 8.72071 15.0676 7.6922 14.7084C6.66369 14.3492 5.76478 13.6932 5.10916 12.8231C4.45353 11.9531 4.07062 10.9081 4.00886 9.82047C3.9471 8.7328 4.20925 7.65125 4.76217 6.71257C5.3151 5.7739 6.13395 5.02027 7.11519 4.54697C8.09643 4.07368 9.19598 3.90199 10.2748 4.05361" stroke="#DBDBDB" stroke-linecap="round"/>
<path d="M9.56039 9.92639C10.3681 9.92639 11.0236 9.27088 11.0236 8.46319C11.0236 7.65551 10.3681 7 9.56039 7C8.75271 7 8.0972 7.65551 8.0972 8.46319C8.0972 9.27088 8.75271 9.92639 9.56039 9.92639Z" stroke="#DBDBDB" stroke-linecap="round" stroke-linejoin="round"/>
<path d="M9.63721 11.6777C8.18192 11.6777 6.99988 12.6591 6.99988 13.8725M9.48372 11.6777C10.939 11.6777 12.1211 12.6591 12.1211 13.8725" stroke="#DBDBDB" stroke-linecap="round" stroke-linejoin="round"/>
<path d="M13.8147 4.02447C13.9194 3.70201 14.3756 3.70201 14.4804 4.02447L14.7756 4.93305C14.8225 5.07726 14.9569 5.1749 15.1085 5.1749H16.0638C16.4029 5.1749 16.5439 5.60876 16.2696 5.80805L15.4967 6.36959C15.374 6.45871 15.3227 6.61669 15.3695 6.7609L15.6648 7.66948C15.7695 7.99194 15.4005 8.26009 15.1262 8.0608L14.3533 7.49926C14.2306 7.41013 14.0645 7.41013 13.9418 7.49926L13.1689 8.0608C12.8946 8.26009 12.5256 7.99194 12.6303 7.66948L12.9256 6.7609C12.9724 6.61669 12.9211 6.45871 12.7984 6.36959L12.0255 5.80805C11.7512 5.60876 11.8922 5.1749 12.2312 5.1749H13.1866C13.3382 5.1749 13.4726 5.07726 13.5195 4.93305L13.8147 4.02447Z" stroke="#DBDBDB" stroke-width="0.75"/>
</svg>
