<svg width="20" height="20" viewBox="0 0 20 20" fill="none" xmlns="http://www.w3.org/2000/svg">
<path d="M13.1907 15.2157H5.50693C5.23995 15.2157 5.01855 14.9943 5.01855 14.7273C5.01855 14.4603 5.23995 14.2389 5.50693 14.2389H13.1907C13.8483 14.2389 14.0697 14.1022 14.0697 13.2752V12.598C14.0697 11.771 13.8483 11.6343 13.1907 11.6343H5.50693C5.23995 11.6343 5.01855 11.4129 5.01855 11.1459C5.01855 10.8789 5.23995 10.6575 5.50693 10.6575H13.1907C14.4409 10.6575 15.0465 11.2957 15.0465 12.598V13.2752C15.0465 14.5775 14.4409 15.2157 13.1907 15.2157Z" fill="#DBDBDB" stroke="#DBDBDB" stroke-width="0.25"/>
<path d="M9.93484 9.68078H5.50693C5.23995 9.68078 5.01855 9.45938 5.01855 9.19241C5.01855 8.92543 5.23995 8.70404 5.50693 8.70404H9.93484C10.5925 8.70404 10.8139 8.56729 10.8139 7.74031V7.0631C10.8139 6.23612 10.5925 6.09938 9.93484 6.09938H5.50693C5.23995 6.09938 5.01855 5.87798 5.01855 5.61101C5.01855 5.34403 5.23995 5.12263 5.50693 5.12263H9.93484C11.1851 5.12263 11.7907 5.76078 11.7907 7.0631V7.74031C11.7907 9.04264 11.1851 9.68078 9.93484 9.68078Z" fill="#DBDBDB" stroke="#DBDBDB" stroke-width="0.25"/>
<path d="M5.44199 17C5.17501 17 4.95361 16.7786 4.95361 16.5116V3.48837C4.95361 3.2214 5.17501 3 5.44199 3C5.70896 3 5.93036 3.2214 5.93036 3.48837V16.5116C5.93036 16.7786 5.70896 17 5.44199 17Z" fill="#DBDBDB" stroke="#DBDBDB" stroke-width="0.25"/>
</svg>
