<svg width="20" height="20" viewBox="0 0 20 20" fill="none" xmlns="http://www.w3.org/2000/svg">
<path d="M9.34995 16.3245C9.5476 16.4386 9.7718 16.4987 10 16.4987C10.2282 16.4987 10.4524 16.4386 10.6501 16.3245L15.2006 13.7242C15.398 13.6102 15.562 13.4463 15.6761 13.2489C15.7902 13.0515 15.8504 12.8276 15.8506 12.5996V7.39907C15.8504 7.17108 15.7902 6.94715 15.6761 6.74976C15.562 6.55237 15.398 6.38845 15.2006 6.27446L10.6501 3.67419C10.4524 3.56007 10.2282 3.5 10 3.5C9.7718 3.5 9.5476 3.56007 9.34995 3.67419L4.79948 6.27446C4.60203 6.38845 4.43803 6.55237 4.32393 6.74976C4.20983 6.94715 4.14965 7.17108 4.14941 7.39907V12.5996C4.14965 12.8276 4.20983 13.0515 4.32393 13.2489C4.43803 13.4463 4.60203 13.6102 4.79948 13.7242L9.34995 16.3245Z" stroke="#DBDBDB" stroke-linecap="round" stroke-linejoin="round"/>
<path d="M10 16.5V9.99933" stroke="#DBDBDB" stroke-linecap="round" stroke-linejoin="round"/>
<path d="M4.33789 6.74899L9.99998 9.99933L15.6621 6.74899" stroke="#DBDBDB" stroke-linecap="round" stroke-linejoin="round"/>
<path d="M7.07471 4.9743L12.9253 8.32215" stroke="#DBDBDB" stroke-linecap="round" stroke-linejoin="round"/>
</svg>
