<svg width="20" height="20" viewBox="0 0 20 20" fill="none" xmlns="http://www.w3.org/2000/svg">
<g clip-path="url(#clip0_2358_6504)">
<mask id="mask0_2358_6504" style="mask-type:luminance" maskUnits="userSpaceOnUse" x="0" y="0" width="20" height="20">
<path d="M20 0H0V20H20V0Z" fill="white"/>
</mask>
<g mask="url(#mask0_2358_6504)">
<mask id="mask1_2358_6504" style="mask-type:luminance" maskUnits="userSpaceOnUse" x="3" y="3" width="14" height="14">
<path d="M17 3H3V17H17V3Z" fill="white"/>
</mask>
<g mask="url(#mask1_2358_6504)">
<path d="M6.92567 14.4915C7.404 13.9782 8.13317 14.019 8.55317 14.579L9.14234 15.3665C9.61484 15.9907 10.379 15.9907 10.8515 15.3665L11.4407 14.579C11.8607 14.019 12.5898 13.9782 13.0682 14.4915C14.1065 15.5998 14.9523 15.2323 14.9523 13.6807V7.1065C14.9582 4.75567 14.4098 4.1665 12.2048 4.1665H7.79484C5.58984 4.1665 5.0415 4.75567 5.0415 7.1065V13.6748C5.0415 15.2323 5.89317 15.594 6.92567 14.4915Z" stroke="#DBDBDB" stroke-linecap="round" stroke-linejoin="round"/>
<path d="M7.6665 7.08301H12.3332" stroke="#DBDBDB" stroke-linecap="round" stroke-linejoin="round"/>
<path d="M8.25 9.4165H11.75" stroke="#DBDBDB" stroke-linecap="round" stroke-linejoin="round"/>
</g>
</g>
</g>
<defs>
<clipPath id="clip0_2358_6504">
<rect width="20" height="20" fill="white"/>
</clipPath>
</defs>
</svg>
