<svg width="20" height="20" viewBox="0 0 20 20" fill="none" xmlns="http://www.w3.org/2000/svg">
<path d="M14.929 14.6018C14.3771 15.5738 13.3271 15.9998 11.6351 15.9998H8.40111L7.43701 15.9998C5.78016 15.9998 4.43701 14.6567 4.43701 12.9998V9.00928" stroke="#DBDBDB" stroke-linecap="round" stroke-linejoin="round"/>
<path d="M15.409 9.53223V12.2262" stroke="#DBDBDB" stroke-linecap="round" stroke-linejoin="round"/>
<path d="M10.0213 10C11.1193 10 11.9293 9.10608 11.8213 8.00805L11.4193 4H8.61733L8.21535 8.00805C8.10735 9.10608 8.92334 10 10.0213 10Z" stroke="#DBDBDB" stroke-linecap="round" stroke-linejoin="round"/>
<path d="M13.8011 10C15.0131 10 15.9011 9.01602 15.7811 7.81001L15.6131 6.16C15.3971 4.59999 14.7971 4 13.2251 4H11.3951L11.8151 8.20602C11.9231 9.19602 12.8111 10 13.8011 10Z" stroke="#DBDBDB" stroke-linecap="round" stroke-linejoin="round"/>
<path d="M4.38713 6.16L4.21912 7.81001C4.09912 9.01602 4.9871 10 6.1991 10C7.18909 10 8.08311 9.19602 8.17911 8.20602L8.31109 6.88004L8.59908 4H6.7691C6.2231 4 5.7911 4.07201 5.45511 4.23401" stroke="#DBDBDB" stroke-linecap="round" stroke-linejoin="round"/>
</svg>
